<svg width="22" height="17" viewBox="0 0 22 17" fill="none" xmlns="http://www.w3.org/2000/svg">
<path d="M21.7001 0.899387C21.5105 0.717683 21.2557 0.615906 20.9903 0.615906C20.7249 0.615906 20.47 0.717683 20.2805 0.899387L6.70324 14.1781L1.73472 9.31883C1.64045 9.22588 1.52831 9.15211 1.40474 9.10176C1.28118 9.05141 1.14865 9.02549 1.01479 9.02549C0.88093 9.02549 0.748397 9.05141 0.624833 9.10176C0.50127 9.15211 0.389122 9.22588 0.294859 9.31883C0.106004 9.50464 0 9.75598 0 10.018C0 10.28 0.106004 10.5313 0.294859 10.7171L5.98331 16.2805C6.07806 16.3724 6.19042 16.4451 6.31396 16.4945C6.4375 16.5438 6.56979 16.5688 6.70324 16.5681C6.96925 16.567 7.22416 16.4637 7.41303 16.2805L21.7001 2.30759C21.7951 2.2154 21.8705 2.10571 21.922 1.98487C21.9735 1.86402 22 1.7344 22 1.60349C22 1.47257 21.9735 1.34295 21.922 1.22211C21.8705 1.10126 21.7951 0.991578 21.7001 0.899387Z" fill="#D22856"/>
</svg>
